<svg width="64" height="64" viewBox="0 0 64 64" fill="none" xmlns="http://www.w3.org/2000/svg">
<path d="M61.5 59.34V60C61.5 60.83 60.83 61.5 60 61.5H4C3.17 61.5 2.5 60.83 2.5 60V59.34C2.5 54.47 4.97 50.01 9.03 47.4C8.83 46.45 8.84 45.45 9.1 44.47C10.15 40.42 13.36 28.08 14.33 16.66C15.15 6.93 24.08 2.5 32.02 2.5H32.03C39.96 2.5 48.86 6.93 49.67 16.66C50.63 28.03 53.85 40.4 54.9 44.47C55.16 45.45 55.17 46.45 54.97 47.41C59.03 50.01 61.5 54.47 61.5 59.34ZM42.96 58.5H58.47C58.22 55.12 56.46 52.07 53.69 50.15C53.56 50.3 53.43 50.45 53.29 50.59C53.27 50.61 53.26 50.63 53.25 50.64C52.98 50.92 52.68 51.21 52.37 51.51C52.3 51.57 52.23 51.64 52.16 51.71C51.92 51.94 51.67 52.17 51.41 52.41C51.29 52.52 51.17 52.63 51.05 52.73C50.82 52.94 50.59 53.15 50.34 53.36C50.2 53.48 50.05 53.61 49.9 53.73C49.67 53.93 49.42 54.13 49.18 54.33C49.01 54.47 48.85 54.6 48.68 54.73C48.43 54.93 48.17 55.13 47.9 55.33C47.73 55.45 47.56 55.58 47.39 55.71C47.1 55.92 46.8 56.13 46.5 56.34C46.34 56.45 46.18 56.56 46.01 56.67C45.58 56.96 45.13 57.25 44.68 57.52L44.53 57.61C44.05 57.9 43.56 58.18 43.07 58.44C43.03 58.46 43 58.48 42.96 58.5ZM51.85 47.43C52.14 46.74 52.19 45.97 52 45.22C50.93 41.1 47.66 28.53 46.69 16.91C46.02 9.03 38.85 5.5 32.03 5.5H32.02C25.4 5.5 17.98 9.07 17.31 16.91C16.62 25.13 14.8 33.76 13.41 39.59C14.73 40.95 20.37 46.44 28.27 49.69C29.04 50.01 29.4 50.89 29.09 51.65C28.9385 52.0184 28.647 52.3116 28.2796 52.4653C27.9121 52.619 27.4987 52.6207 27.13 52.47C20.25 49.63 15.09 45.33 12.58 42.97C12.35 43.87 12.15 44.64 12 45.22C11.81 45.97 11.87 46.74 12.15 47.43C12.16 47.45 12.18 47.47 12.19 47.49C12.27 47.68 12.37 47.85 12.48 48.02C12.49 48.04 12.5 48.05 12.51 48.07C12.62 48.24 12.75 48.39 12.89 48.53C13.86 49.52 15.36 50.94 17.23 52.4C21.03 55.36 26.37 58.5 32 58.5C37.69 58.5 43.08 55.3 46.9 52.3C48.3827 51.1349 49.7889 49.8756 51.11 48.53C51.25 48.39 51.38 48.24 51.49 48.07C51.5 48.05 51.51 48.04 51.52 48.02C51.63 47.86 51.73 47.68 51.81 47.49C51.82 47.47 51.84 47.45 51.85 47.43ZM5.53 58.5H21.04C21 58.48 20.97 58.46 20.93 58.44C20.44 58.18 19.95 57.9 19.47 57.62C19.4205 57.5809 19.3668 57.5474 19.31 57.52C18.86 57.24 18.42 56.96 17.99 56.67C17.82 56.56 17.66 56.44 17.49 56.33C17.2 56.13 16.9 55.92 16.62 55.71C16.44 55.58 16.26 55.45 16.09 55.32C15.83 55.12 15.57 54.93 15.32 54.73C15.15 54.6 14.98 54.46 14.81 54.32C14.57 54.13 14.34 53.94 14.11 53.74C13.95 53.61 13.8 53.48 13.65 53.35C13.41 53.15 13.19 52.95 12.97 52.75C12.84 52.64 12.71 52.52 12.58 52.4C12.34 52.18 12.11 51.97 11.89 51.75C11.8 51.67 11.7 51.58 11.62 51.49C11.31 51.2 11.02 50.91 10.75 50.64C10.75 50.63 10.74 50.63 10.74 50.62C10.59 50.47 10.45 50.31 10.31 50.15C8.93993 51.0962 7.79936 52.3374 6.97216 53.7824C6.14495 55.2274 5.65216 56.8395 5.53 58.5Z" fill="#040347"/>
<path d="M58.47 58.5H42.96C43 58.48 43.03 58.46 43.07 58.44C43.56 58.18 44.05 57.9 44.53 57.61L44.68 57.52C45.13 57.25 45.58 56.96 46.01 56.67C46.18 56.56 46.34 56.45 46.5 56.34C46.8 56.13 47.1 55.92 47.39 55.71C47.56 55.58 47.73 55.45 47.9 55.33C48.17 55.13 48.43 54.93 48.68 54.73C48.85 54.6 49.01 54.47 49.18 54.33C49.42 54.13 49.67 53.93 49.9 53.73C50.05 53.61 50.2 53.48 50.34 53.36C50.59 53.15 50.82 52.94 51.05 52.73C51.17 52.63 51.29 52.52 51.41 52.41C51.67 52.17 51.92 51.94 52.16 51.71C52.23 51.64 52.3 51.57 52.37 51.51C52.68 51.21 52.98 50.92 53.25 50.64C53.26 50.63 53.27 50.61 53.29 50.59C53.43 50.45 53.56 50.3 53.69 50.15C56.46 52.07 58.22 55.12 58.47 58.5V58.5Z" fill="#040347" fill-opacity="0.63"/>
<path d="M52 45.22C52.19 45.97 52.14 46.74 51.85 47.43C51.84 47.45 51.82 47.47 51.81 47.49C51.73 47.68 51.63 47.86 51.52 48.02C51.51 48.04 51.5 48.05 51.49 48.07C51.38 48.24 51.25 48.39 51.11 48.53C50.16 49.5 48.71 50.88 46.9 52.3C43.08 55.3 37.69 58.5 32 58.5C26.37 58.5 21.03 55.36 17.23 52.4C15.7009 51.2055 14.2512 49.9128 12.89 48.53C12.75 48.39 12.62 48.24 12.51 48.07C12.5 48.05 12.49 48.04 12.48 48.02C12.37 47.85 12.27 47.68 12.19 47.49C12.18 47.47 12.16 47.45 12.15 47.43C11.87 46.74 11.81 45.97 12 45.22C12.15 44.64 12.35 43.87 12.58 42.97C15.09 45.33 20.25 49.63 27.13 52.47C27.4987 52.6207 27.9121 52.619 28.2796 52.4653C28.647 52.3116 28.9385 52.0184 29.09 51.65C29.4 50.89 29.04 50.01 28.27 49.69C20.37 46.44 14.73 40.95 13.41 39.59C14.8 33.76 16.62 25.13 17.31 16.91C17.98 9.07 25.4 5.5 32.02 5.5H32.03C38.85 5.5 46.02 9.03 46.69 16.91C47.66 28.53 50.93 41.1 52 45.22ZM48.9 43.46C49.0777 43.1046 49.1069 42.6932 48.9813 42.3162C48.8556 41.9393 48.5854 41.6277 48.23 41.45C47.8746 41.2723 47.4632 41.2431 47.0862 41.3687C46.7093 41.4944 46.3977 41.7646 46.22 42.12C46.2 42.16 44.17 46.14 38.68 49.84C38 50.3 37.81 51.23 38.28 51.92C38.3896 52.0836 38.5306 52.2239 38.6948 52.3328C38.859 52.4416 39.0431 52.5168 39.2365 52.554C39.43 52.5912 39.6289 52.5896 39.8217 52.5495C40.0145 52.5093 40.1975 52.4313 40.36 52.32C46.5 48.19 48.81 43.65 48.9 43.46ZM43.9 31.97V21.77C43.9 15.55 38.56 10.5 32 10.5C25.44 10.5 20.1 15.55 20.1 21.77V31.97C20.1 38.33 28.28 44.29 32 44.29C35.72 44.29 43.9 38.33 43.9 31.97Z" fill="#040347" fill-opacity="0.63"/>
<path d="M48.23 41.45C48.97 41.82 49.27 42.72 48.9 43.46C48.81 43.65 46.5 48.19 40.36 52.32C40.1975 52.4313 40.0145 52.5093 39.8217 52.5495C39.6289 52.5896 39.43 52.5912 39.2366 52.554C39.0431 52.5168 38.859 52.4416 38.6948 52.3328C38.5306 52.2239 38.3896 52.0836 38.28 51.92C37.81 51.23 38 50.3 38.68 49.84C44.17 46.14 46.2 42.16 46.22 42.12C46.59 41.38 47.49 41.08 48.23 41.45ZM43.9 24.74V31.97C43.9 38.33 35.72 44.29 32 44.29C28.28 44.29 20.1 38.33 20.1 31.97V21.77C20.1 15.55 25.44 10.5 32 10.5C38.56 10.5 43.9 15.55 43.9 21.77V24.74ZM40.9 31.97V24.74C40.9 23.07 39.41 21.71 37.58 21.71H26.42C24.59 21.71 23.1 23.07 23.1 24.74V31.97C23.1 36.44 29.77 41.29 32 41.29C34.23 41.29 40.9 36.44 40.9 31.97ZM40.4 19.35C40.44 19.37 40.49 19.39 40.53 19.41C39.44 16 36.03 13.5 32 13.5C27.97 13.5 24.56 16 23.47 19.41C23.51 19.39 23.56 19.37 23.6 19.35C23.75 19.28 23.91 19.21 24.07 19.15C24.14 19.12 24.22 19.09 24.3 19.07C24.5255 18.9888 24.756 18.922 24.99 18.87C25.15 18.84 25.31 18.81 25.47 18.79C25.54 18.78 25.62 18.76 25.69 18.75C25.93 18.73 26.17 18.71 26.42 18.71H37.58C37.83 18.71 38.07 18.73 38.31 18.75C38.38 18.76 38.46 18.78 38.53 18.79C38.69 18.81 38.85 18.84 39.01 18.87C39.244 18.922 39.4745 18.9888 39.7 19.07C39.78 19.09 39.86 19.12 39.93 19.15C40.09 19.21 40.25 19.28 40.4 19.35Z" fill="#040347"/>
<path d="M40.9 24.74V31.97C40.9 36.44 34.23 41.29 32 41.29C29.77 41.29 23.1 36.44 23.1 31.97V24.74C23.1 23.07 24.59 21.71 26.42 21.71H37.58C39.41 21.71 40.9 23.07 40.9 24.74Z" fill="#E9B294"/>
<path d="M40.53 19.41C40.49 19.39 40.44 19.37 40.4 19.35C40.25 19.28 40.09 19.21 39.93 19.15C39.86 19.12 39.78 19.09 39.7 19.07C39.4745 18.9888 39.244 18.922 39.01 18.87C38.85 18.84 38.69 18.81 38.53 18.79C38.46 18.78 38.38 18.76 38.31 18.75C38.07 18.73 37.83 18.71 37.58 18.71H26.42C26.17 18.71 25.93 18.73 25.69 18.75C25.62 18.76 25.54 18.78 25.47 18.79C25.31 18.81 25.15 18.84 24.99 18.87C24.9 18.89 24.82 18.91 24.74 18.93C24.59 18.97 24.44 19.02 24.3 19.07C24.22 19.09 24.14 19.12 24.07 19.15C23.91 19.21 23.75 19.28 23.6 19.35C23.56 19.37 23.51 19.39 23.47 19.41C24.56 16 27.97 13.5 32 13.5C36.03 13.5 39.44 16 40.53 19.41Z" fill="#040347" fill-opacity="0.63"/>
<path d="M21.04 58.5H5.53C5.78 55.12 7.54 52.07 10.31 50.15C10.45 50.31 10.59 50.47 10.74 50.62C10.74 50.63 10.75 50.63 10.75 50.64C11.02 50.91 11.31 51.2 11.62 51.49C11.7 51.58 11.8 51.67 11.89 51.75C12.11 51.97 12.34 52.18 12.58 52.4C12.71 52.52 12.84 52.64 12.97 52.75C13.19 52.95 13.41 53.15 13.65 53.35C13.8 53.48 13.95 53.61 14.11 53.74C14.34 53.94 14.57 54.13 14.81 54.32C14.98 54.46 15.15 54.6 15.32 54.73C15.57 54.93 15.83 55.12 16.09 55.32C16.26 55.45 16.44 55.58 16.62 55.71C16.9 55.92 17.2 56.13 17.49 56.33C17.66 56.44 17.82 56.56 17.99 56.67C18.42 56.96 18.86 57.24 19.31 57.52C19.37 57.55 19.42 57.58 19.47 57.62C19.95 57.9 20.44 58.18 20.93 58.44C20.97 58.46 21 58.48 21.04 58.5V58.5Z" fill="#040347" fill-opacity="0.63"/>
</svg>
